<?xml version="1.0" encoding="UTF-8"?>
<svg width="60" height="60" viewBox="0 0 60 60" fill="none" xmlns="http://www.w3.org/2000/svg">
    <path d="M45 22.5H40V17.5C40 16.1193 38.8807 15 37.5 15H22.5C21.1193 15 20 16.1193 20 17.5V22.5H15C13.6193 22.5 12.5 23.6193 12.5 25V42.5C12.5 43.8807 13.6193 45 15 45H45C46.3807 45 47.5 43.8807 47.5 42.5V25C47.5 23.6193 46.3807 22.5 45 22.5Z" stroke="#556B2F" stroke-width="2.5" stroke-linecap="round" stroke-linejoin="round"/>
    <path d="M30 37.5C33.4518 37.5 36.25 34.7018 36.25 31.25C36.25 27.7982 33.4518 25 30 25C26.5482 25 23.75 27.7982 23.75 31.25C23.75 34.7018 26.5482 37.5 30 37.5Z" stroke="#88B04B" stroke-width="2.5" stroke-linecap="round" stroke-linejoin="round"/>
    <path d="M25 15V11.25C25 10.5596 25.5596 10 26.25 10H33.75C34.4404 10 35 10.5596 35 11.25V15" stroke="#556B2F" stroke-width="2.5" stroke-linecap="round" stroke-linejoin="round"/>
</svg>
