<?xml version="1.0" encoding="UTF-8"?>
<svg width="24px" height="24px" viewBox="0 0 24 24" version="1.1" xmlns="http://www.w3.org/2000/svg">
    <g stroke="none" stroke-width="1" fill="none" fill-rule="evenodd">
        <path d="M12,2 C15.87,2 19,5.13 19,9 C19,14.25 12,22 12,22 C12,22 5,14.25 5,9 C5,5.13 8.13,2 12,2 Z M12,4 C9.24,4 7,6.24 7,9 C7,10 7,12 12,18.71 C17,12 17,10 17,9 C17,6.24 14.76,4 12,4 Z M12,11.5 C10.6193,11.5 9.5,10.3807 9.5,9 C9.5,7.6193 10.6193,6.5 12,6.5 C13.3807,6.5 14.5,7.6193 14.5,9 C14.5,10.3807 13.3807,11.5 12,11.5 Z" fill="#556B2F" fill-rule="nonzero"></path>
    </g>
</svg>
