<?xml version="1.0" encoding="UTF-8"?>
<svg width="24px" height="24px" viewBox="0 0 24 24" version="1.1" xmlns="http://www.w3.org/2000/svg">
    <g stroke="none" stroke-width="1" fill="none" fill-rule="evenodd">
        <path d="M19.23,15.26 L16.69,14.97 C16.3013985,14.9148957 15.9147325,15.0070304 15.59,15.23 L13.68,16.68 C11.5067689,15.5230809 9.69730419,13.7145294 8.54,11.54 L10,9.6 C10.2229696,9.27526754 10.3151043,8.88860146 10.26,8.5 L9.97,5.97 C9.88956338,5.34557133 9.36618979,4.86142653 8.73,4.85 L7,4.85 C6.28,4.85 5.7,5.43 5.76,6.15 C6.13324977,13.5952464 12.1750012,19.6369988 19.62,20.01 C20.34,20.07 20.92,19.49 20.92,18.77 L20.92,17.04 C20.911622,16.4066321 20.4293094,15.8851368 19.81,15.8 L19.23,15.26 Z" fill="#556B2F" fill-rule="nonzero"></path>
    </g>
</svg>
