<?xml version="1.0" encoding="UTF-8"?>
<svg width="40" height="40" viewBox="0 0 40 40" fill="none" xmlns="http://www.w3.org/2000/svg">
    <path d="M12.5 20H5C3.3425 20 2 18.6575 2 17V10C2 8.3425 3.3425 7 5 7H10C11.6575 7 13 8.3425 13 10V15" stroke="#88B04B" stroke-width="2.5" stroke-linecap="round" stroke-linejoin="round"/>
    <path d="M12.5 20C12.5 23.3137 9.81375 26 6.5 26C3.18625 26 0.5 23.3137 0.5 20" stroke="#88B04B" stroke-width="2.5" stroke-linecap="round" stroke-linejoin="round"/>
    <path d="M32.5 20H25C23.3425 20 22 18.6575 22 17V10C22 8.3425 23.3425 7 25 7H30C31.6575 7 33 8.3425 33 10V15" stroke="#88B04B" stroke-width="2.5" stroke-linecap="round" stroke-linejoin="round"/>
    <path d="M32.5 20C32.5 23.3137 29.8137 26 26.5 26C23.1863 26 20.5 23.3137 20.5 20" stroke="#88B04B" stroke-width="2.5" stroke-linecap="round" stroke-linejoin="round"/>
</svg>
