<?xml version="1.0" encoding="UTF-8"?>
<svg width="24px" height="24px" viewBox="0 0 24 24" version="1.1" xmlns="http://www.w3.org/2000/svg">
    <g stroke="none" stroke-width="1" fill="none" fill-rule="evenodd">
        <path d="M19.05,4.91 C17.18,3.03 14.69,2 12.04,2 C6.5,2 2.02,6.48 2.02,12.02 C2.02,13.77 2.46,15.47 3.29,16.97 L2,22 L7.17,20.74 C8.61,21.5 10.3,21.9 12.02,21.9 L12.04,21.9 C17.58,21.9 22.06,17.42 22.06,11.88 C22.06,9.23 20.96,6.76 19.05,4.91 Z M12.04,20.15 L12.03,20.15 C10.5,20.15 9.01,19.77 7.69,19.06 L7.39,18.89 L4.38,19.64 L5.15,16.71 L4.96,16.39 C4.17,15.02 3.76,13.46 3.76,11.85 C3.76,7.45 7.51,3.7 12.04,3.7 C14.27,3.7 16.36,4.57 17.94,6.16 C19.5,7.75 20.32,9.85 20.31,12.08 C20.31,16.49 16.56,20.15 12.04,20.15 Z M16.56,13.99 C16.29,13.85 15.01,13.22 14.77,13.13 C14.53,13.05 14.35,13.01 14.18,13.27 C14,13.54 13.5,14.12 13.35,14.3 C13.2,14.47 13.05,14.5 12.79,14.36 C12.52,14.22 11.7,13.95 10.75,13.1 C10.01,12.44 9.52,11.63 9.37,11.36 C9.23,11.09 9.36,10.95 9.5,10.82 C9.61,10.71 9.76,10.53 9.89,10.38 C10.01,10.23 10.06,10.12 10.14,9.95 C10.22,9.77 10.18,9.62 10.12,9.49 C10.06,9.36 9.57,8.07 9.36,7.53 C9.15,7.01 8.94,7.08 8.78,7.07 L8.28,7.06 C8.1,7.06 7.82,7.12 7.57,7.39 C7.34,7.66 6.66,8.29 6.66,9.58 C6.66,10.87 7.61,12.11 7.74,12.28 C7.87,12.46 9.4,14.94 11.88,16.09 C14.35,17.24 14.35,16.79 14.83,16.73 C15.3,16.67 16.34,16.1 16.56,15.47 C16.77,14.85 16.77,14.31 16.71,14.2 C16.65,14.09 16.48,14.03 16.21,13.9 L16.56,13.99 Z" fill="#25D366" fill-rule="nonzero"></path>
    </g>
</svg>
